<?xml version="1.0" standalone="no"?>
<!DOCTYPE svg PUBLIC "-//W3C//DTD SVG 20010904//EN"
 "http://www.w3.org/TR/2001/REC-SVG-20010904/DTD/svg10.dtd">
<svg version="1.0" xmlns="http://www.w3.org/2000/svg"
 width="320.000000pt" height="320.000000pt" viewBox="0 0 320.000000 320.000000"
 preserveAspectRatio="xMidYMid meet">
<metadata>
Created by potrace 1.11, written by Peter Selinger 2001-2013
</metadata>
<g transform="translate(0.000000,320.000000) scale(0.100000,-0.100000)"
fill="#000000" stroke="none">
<path d="M0 1600 l0 -1600 1600 0 1600 0 0 1600 0 1600 -1600 0 -1600 0 0
-1600z m1140 1307 c0 -5 7 -15 15 -23 8 -9 16 -24 16 -35 1 -10 2 -28 3 -38 0
-11 4 -23 8 -26 4 -4 2 -17 -3 -28 -8 -14 -8 -22 1 -27 9 -6 9 -12 0 -30 -7
-13 -8 -25 -3 -29 10 -7 9 -48 -1 -58 -3 -3 -1 -12 5 -20 6 -7 8 -13 3 -13 -9
0 -10 -111 -1 -134 3 -7 1 -19 -3 -26 -5 -7 -4 -24 1 -37 5 -12 5 -23 1 -23
-4 0 -5 -29 -2 -65 3 -36 1 -73 -3 -81 -6 -10 -6 -19 0 -23 9 -7 9 -48 -1 -58
-3 -3 -1 -12 5 -20 6 -7 8 -13 3 -13 -9 0 -10 -109 -2 -127 2 -4 3 -83 3 -175
l0 -166 36 21 c20 12 47 30 60 39 49 36 140 98 144 98 4 0 135 86 151 99 7 6
14 7 18 4 3 -3 11 -2 18 3 34 24 88 -15 83 -60 -3 -24 -24 -69 -25 -52 0 4 -9
-2 -20 -15 -10 -13 -19 -21 -20 -16 0 4 -9 -1 -19 -10 -39 -37 -68 -58 -97
-73 -32 -16 -105 -69 -116 -85 -4 -5 -8 -7 -8 -2 0 6 -85 -51 -135 -90 -5 -4
-22 -14 -37 -22 -16 -8 -29 -21 -29 -30 -1 -9 -2 -228 -3 -486 l-1 -470 762 0
c420 0 763 -3 763 -7 0 -4 9 -9 19 -13 21 -6 34 -42 20 -51 -6 -3 -5 -11 2
-20 9 -11 9 -14 0 -14 -7 0 -9 -5 -6 -10 4 -6 3 -9 -2 -8 -4 1 -17 -3 -28 -8
-11 -6 -39 -10 -62 -9 -24 0 -43 -3 -43 -8 0 -4 -5 -5 -11 -1 -17 10 -149 11
-149 1 0 -4 -5 -5 -11 -1 -17 10 -109 12 -109 2 0 -5 -5 -6 -11 -2 -17 10
-109 12 -109 2 0 -5 -5 -6 -11 -2 -17 10 -109 12 -109 2 0 -5 -5 -6 -11 -2
-17 10 -109 12 -109 2 0 -5 -8 -4 -18 1 -13 7 -23 6 -30 -1 -8 -8 -12 -8 -12
-2 0 6 -7 11 -15 11 -8 0 -15 -5 -15 -11 0 -6 -4 -5 -9 2 -4 8 -12 14 -16 14
-4 0 -12 -6 -16 -14 -5 -7 -9 -8 -9 -2 0 6 -7 11 -15 11 -8 0 -15 -5 -15 -11
0 -6 -4 -5 -9 2 -11 17 -21 17 -32 0 -5 -7 -9 -8 -9 -2 0 14 -30 14 -30 0 0
-6 -4 -5 -9 2 -11 17 -21 17 -32 0 -5 -7 -9 -8 -9 -2 0 14 -30 14 -30 0 0 -7
-3 -7 -8 -1 -8 12 -142 14 -142 2 0 -4 -5 -5 -11 -1 -17 10 -109 12 -109 2 0
-5 -5 -6 -11 -2 -17 10 -102 12 -116 2 -6 -5 -14 -5 -18 2 -9 14 -55 13 -55
-2 0 -8 -3 -9 -8 -3 -4 6 -26 11 -50 12 -29 2 -50 10 -65 25 -20 21 -23 32
-18 63 2 8 3 865 1 903 0 11 -3 11 -15 0 -58 -53 -165 -101 -165 -75 0 9 -2 9
-8 0 -5 -8 -15 0 -30 23 -14 21 -18 34 -10 34 9 0 9 3 1 11 -9 9 -1 22 31 53
23 23 58 50 77 60 19 11 36 22 39 25 3 4 22 17 42 31 36 24 57 60 35 60 -8 0
-8 3 -2 8 6 4 10 220 10 612 0 333 2 617 6 631 4 16 2 32 -4 39 -9 10 -9 11 1
6 7 -4 12 -2 12 6 0 27 33 56 62 54 15 0 28 -5 28 -9z"/>
</g>
</svg>
